<svg xmlns="http://www.w3.org/2000/svg" width="34.8" height="34.895" viewBox="0 0 34.8 34.895"><path d="M17.549,27.442c-5.849,0-8.462-2.877-8.462-5.036a1.838,1.838,0,0,1,1.938-1.884c2.505,0,1.851,3.6,6.524,3.6,2.386,0,3.708-1.3,3.708-2.633,0-.8-.391-1.687-1.969-2.078l-5.2-1.3C9.9,17.058,9.141,14.787,9.141,12.657c0-4.43,4.16-6.093,8.068-6.093,3.593,0,7.841,2,7.841,4.651a1.915,1.915,0,0,1-2.113,1.8c-2.136,0-1.742-2.962-6.054-2.962-2.136,0-3.332.965-3.332,2.351s1.676,1.829,3.136,2.162l3.834.853c4.2.944,5.269,3.411,5.269,5.734,0,3.6-2.765,6.287-8.319,6.287m16.115-7.1-.042.2-.064-.349c.022.065.064.108.086.174a17.062,17.062,0,0,0,.263-2.983A16.464,16.464,0,0,0,28.994,5.729,16.693,16.693,0,0,0,23.768,2.2,14.55,14.55,0,0,0,17.475.849a16.625,16.625,0,0,0-3.116.3l.173.087-.347-.048.173-.036A9.75,9.75,0,0,0,1.275,14.5l.029-.18.06.347L1.277,14.5a16.33,16.33,0,0,0-.25,2.842,16.591,16.591,0,0,0,1.285,6.421A15.89,15.89,0,0,0,5.84,29.012a16.467,16.467,0,0,0,5.227,3.551,16.246,16.246,0,0,0,9.278,1.045l-.173-.09.349.067-.2.044a9.733,9.733,0,0,0,14.523-8.492,9.845,9.845,0,0,0-1.24-4.749" transform="translate(-0.048)" fill="#2a2a72"/></svg>