<svg xmlns="http://www.w3.org/2000/svg" width="34.8" height="34.8" viewBox="0 0 34.8 34.8"><path d="M19.966,2.25A17.018,17.018,0,0,0,2.882,19.2a16.777,16.777,0,0,0,2.451,8.753L2.25,37.05l9.458-3A17.113,17.113,0,0,0,37.05,19.2,17.018,17.018,0,0,0,19.966,2.25Zm8.5,23.39a4.413,4.413,0,0,1-3.022,1.948c-.8.042-.824.621-5.192-1.277s-7-6.513-7.2-6.81a8.378,8.378,0,0,1-1.612-4.541A4.841,4.841,0,0,1,13.1,11.408a1.673,1.673,0,0,1,1.183-.5c.344-.006.567-.01.821,0s.636-.053.967.826S17.189,14.777,17.29,15a.792.792,0,0,1,.008.759,2.967,2.967,0,0,1-.463.706c-.228.245-.48.547-.683.734-.227.207-.464.433-.225.875a13.073,13.073,0,0,0,2.313,3.087,11.92,11.92,0,0,0,3.425,2.277c.428.233.684.207.95-.072s1.137-1.223,1.445-1.644.6-.34.99-.181,2.5,1.286,2.926,1.519.714.352.816.536A3.588,3.588,0,0,1,28.461,25.64Z" transform="translate(-2.25 -2.25)" fill="#2a2a72"/></svg>